<svg width="16" height="20" viewBox="0 0 16 20" fill="none" xmlns="http://www.w3.org/2000/svg">
<path d="M8 0C5.87898 0.0024376 3.8455 0.885274 2.34572 2.45481C0.845932 4.02435 0.00232928 6.1524 0 8.37205C0 12.7942 6.72 18.8647 7.4832 19.5429L8 20L8.5168 19.5429C9.28 18.8647 16 12.7942 16 8.37205C15.9977 6.1524 15.1541 4.02435 13.6543 2.45481C12.1545 0.885274 10.121 0.0024376 8 0V0ZM8 12.5581C7.20887 12.5581 6.43552 12.3126 5.77772 11.8526C5.11992 11.3926 4.60723 10.7389 4.30448 9.97398C4.00173 9.20908 3.92252 8.36741 4.07686 7.5554C4.2312 6.74339 4.61216 5.99751 5.17157 5.41209C5.73098 4.82666 6.44372 4.42798 7.21964 4.26646C7.99556 4.10494 8.79983 4.18784 9.53073 4.50467C10.2616 4.8215 10.8864 5.35803 11.3259 6.04642C11.7654 6.73481 12 7.54414 12 8.37205C11.9987 9.48185 11.5769 10.5458 10.827 11.3306C10.0772 12.1153 9.06048 12.5568 8 12.5581Z" fill="#6D737A"/>
</svg>
