<svg id="Layer_1" data-name="Layer 1" xmlns="http://www.w3.org/2000/svg" viewBox="0 0 100 100"><defs><style>.cls-1{fill:#40d789;}</style></defs><path class="cls-1" d="M23.45,23.69H90.53c.33,0,.67,0,1,0a1.9,1.9,0,0,1,2,2.57Q91.89,33.61,90.2,41c-1.27,5.52-2.52,11-3.8,16.55A9.28,9.28,0,0,1,77.09,65q-20,.06-40,0a9.3,9.3,0,0,1-9.28-7.35Q23.17,38.81,18.54,20a5.63,5.63,0,0,0-5.76-4.57c-1.42,0-2.85,0-4.27,0a1.92,1.92,0,1,1,0-3.82,42.65,42.65,0,0,1,6,.16,9,9,0,0,1,7.66,6.84C22.65,20.24,23,22,23.45,23.69Zm65.86,3.9H24.43c.07.34.11.64.18.93q3.42,14,6.85,27.94a5.67,5.67,0,0,0,6.07,4.74H76.62c3.37,0,5.38-1.63,6.12-4.9,1.41-6.22,2.85-12.44,4.27-18.67C87.77,34.31,88.53,31,89.31,27.59Z"/><path class="cls-1" d="M34.14,79.83a8.58,8.58,0,1,1,8.56,8.64A8.58,8.58,0,0,1,34.14,79.83Zm3.84,0a4.74,4.74,0,1,0,4.74-4.72A4.7,4.7,0,0,0,38,79.86Z"/><path class="cls-1" d="M77.33,79.84a8.58,8.58,0,1,1-8.63-8.57A8.59,8.59,0,0,1,77.33,79.84Zm-3.85.06A4.74,4.74,0,0,0,64,79.84a4.74,4.74,0,1,0,9.47.06Z"/></svg>